<?xml version="1.0" standalone="no"?>
<!DOCTYPE svg PUBLIC "-//W3C//DTD SVG 20010904//EN"
 "http://www.w3.org/TR/2001/REC-SVG-20010904/DTD/svg10.dtd">
<svg version="1.0" xmlns="http://www.w3.org/2000/svg"
 width="512.000000pt" height="512.000000pt" viewBox="0 0 512.000000 512.000000"
 preserveAspectRatio="xMidYMid meet">

<g transform="translate(0.000000,512.000000) scale(0.100000,-0.100000)"
fill="#ffffff" stroke="none">
<path d="M2880 4888 c-79 -53 -108 -177 -90 -383 30 -349 27 -384 -46 -570
-59 -147 -213 -460 -223 -449 -11 11 -64 246 -82 356 -19 126 -8 199 65 432
78 246 103 372 86 434 -14 54 -47 77 -98 69 -138 -23 -252 -237 -343 -646 -6
-25 -14 -212 -19 -416 -7 -306 -12 -386 -28 -465 -11 -52 -19 -96 -18 -97 1
-1 47 2 101 8 249 26 532 -42 655 -157 54 -50 63 -80 32 -107 -28 -26 -59 -20
-106 18 -84 68 -197 107 -372 126 -121 13 -278 0 -377 -31 -34 -11 -78 -20
-97 -20 -72 0 -246 132 -294 222 l-20 37 33 128 c20 75 35 163 38 213 4 75 2
90 -19 130 -16 31 -35 51 -61 64 -38 18 -39 18 -65 -1 -61 -45 -117 -170 -169
-373 -62 -246 -58 -302 38 -490 l48 -95 253 -63 c177 -44 272 -63 318 -63 l65
0 -65 -25 -65 -25 -197 12 c-109 7 -201 10 -204 6 -7 -6 36 -73 106 -162 32
-42 56 -87 75 -145 37 -114 67 -172 111 -214 72 -70 164 -71 221 -2 23 28 32
32 51 25 12 -5 22 -14 22 -21 0 -7 -11 -170 -24 -363 -14 -192 -23 -352 -21
-354 2 -2 83 43 180 99 163 95 182 109 265 198 50 53 90 92 90 89 0 -4 -31
-69 -69 -145 l-69 -138 -204 -129 c-112 -70 -204 -128 -205 -129 -4 -3 -32
-460 -29 -463 2 -3 40 7 85 21 272 86 591 104 849 47 l83 -18 -6 96 c-9 160
-35 855 -37 1026 -3 180 7 226 69 324 l34 53 6 172 6 171 -47 115 -46 115 74
-80 73 -80 11 -85 c13 -104 31 -190 40 -190 11 1 281 340 387 485 54 73 119
178 150 240 95 192 177 473 179 608 1 77 0 79 -32 108 -39 35 -81 38 -128 8
-41 -25 -90 -121 -129 -254 -15 -49 -42 -122 -61 -162 -29 -62 -43 -79 -97
-117 -66 -47 -217 -132 -217 -122 0 4 40 86 89 184 110 220 186 406 203 497
17 92 17 446 0 540 -38 205 -104 292 -194 254 -69 -28 -93 -163 -83 -454 8
-232 -1 -300 -56 -408 -58 -118 -293 -466 -305 -454 -2 1 13 50 32 108 49 143
115 371 110 377 -3 2 -30 -17 -61 -43 -43 -37 -79 -56 -160 -85 -58 -21 -105
-36 -105 -35 0 2 42 37 94 78 68 55 117 106 176 184 l83 108 -6 155 c-8 219
-34 434 -58 491 -25 57 -74 107 -114 115 -22 4 -39 -1 -65 -18z m78 -2611 c20
-41 -4 -71 -89 -112 -76 -36 -101 -36 -126 2 -25 37 -5 67 74 107 83 43 122
44 141 3z m-103 -791 c-11 -7 -60 -35 -110 -62 -49 -26 -122 -69 -162 -96 -40
-26 -75 -48 -78 -48 -14 0 93 113 120 127 36 19 226 92 240 93 5 0 1 -6 -10
-14z"/>
<path d="M3956 4619 c-34 -27 -34 -68 0 -103 33 -32 72 -34 108 -5 39 30 33
75 -13 106 -42 28 -61 29 -95 2z"/>
<path d="M1077 4512 c-34 -38 -8 -121 43 -137 46 -15 109 49 96 99 -12 49
-106 74 -139 38z"/>
<path d="M930 3360 c-14 -26 -5 -57 21 -71 28 -15 69 13 69 46 0 43 -70 62
-90 25z"/>
<path d="M777 2732 c-23 -25 -21 -74 3 -104 38 -49 160 -62 160 -17 0 27 -26
78 -58 112 -31 32 -80 37 -105 9z"/>
<path d="M3797 2680 c-35 -28 -71 -104 -63 -135 4 -14 17 -32 30 -40 22 -15
28 -15 63 0 39 16 97 66 114 97 12 22 -12 72 -40 88 -31 16 -76 12 -104 -10z"/>
<path d="M4103 2250 c-14 -12 -23 -33 -23 -49 0 -36 35 -81 63 -81 34 0 86 37
93 66 15 58 -88 108 -133 64z"/>
<path d="M1519 2077 c-41 -31 -51 -99 -22 -148 28 -48 124 -84 160 -61 46 29
25 143 -39 202 -24 22 -74 26 -99 7z"/>
<path d="M1529 1667 c-43 -33 -52 -109 -19 -162 38 -61 181 -134 236 -121 32
8 48 45 40 90 -9 48 -78 148 -124 180 -41 28 -105 35 -133 13z"/>
<path d="M3394 1650 c-79 -45 -144 -137 -144 -203 0 -29 5 -37 30 -47 90 -37
276 63 311 167 10 31 9 39 -8 62 -44 59 -111 66 -189 21z"/>
<path d="M2490 789 c-121 -13 -313 -62 -417 -105 -48 -20 -101 -37 -118 -37
-16 0 -73 10 -125 23 -81 20 -120 24 -265 23 -181 0 -246 -9 -393 -59 -197
-65 -354 -164 -512 -323 -125 -126 -151 -162 -133 -189 9 -16 145 -17 1973
-20 1443 -1 1966 1 1976 9 23 19 16 47 -23 90 -82 91 -224 172 -368 210 -98
26 -255 30 -372 10 l-82 -14 -63 59 c-156 145 -384 257 -625 304 -117 23 -334
33 -453 19z"/>
</g>
</svg>
